# xmcd
#
# Track frame offsets:
# 150
# 13866
# 28801
# 45706
# 59365
# 78619
# 88163
# 101480
# 114469
# 142277
# 155021
# 164977
#
# Disc length: 2339 seconds
#
#
# Revision: 0
# Processed by: cddbd v1.5.2PL0 Copyright (c) Steve Scherf et al.
# Submitted via: FreeRIP 2.941 
#
DISCID=af09210c
DTITLE=La Mississippi - Bagayo
DYEAR=1995
DGENRE=Blues
TTITLE0=Blues del equipaje
TTITLE1=Matadero
TTITLE2=Por fin te fuiste, Mabel
TTITLE3=Mala transa
TTITLE4=Blues de Juan
TTITLE5=Hache Roja
TTITLE6=Un trago para ver mejor
TTITLE7=Que mujer!
TTITLE8=Tus amigos
TTITLE9=Piso de madera
TTITLE10=Zydeco cha cha
TTITLE11=Nocturno a mi barrio
EXTD=
EXTT0=
EXTT1=
EXTT2=
EXTT3=
EXTT4=
EXTT5=
EXTT6=
EXTT7=
EXTT8=
EXTT9=
EXTT10=
EXTT11=
PLAYORDER=
